<?xml version="1.0" encoding="utf-8"?>
<!-- Generator: Adobe Illustrator 17.1.0, SVG Export Plug-In . SVG Version: 6.00 Build 0)  -->
<!DOCTYPE svg PUBLIC "-//W3C//DTD SVG 1.1//EN" "http://www.w3.org/Graphics/SVG/1.1/DTD/svg11.dtd">
<svg version="1.1" id="Layer_1" xmlns="http://www.w3.org/2000/svg" xmlns:xlink="http://www.w3.org/1999/xlink" x="0px" y="0px"
	 viewBox="0 0 500 500" enable-background="new 0 0 500 500" xml:space="preserve">
<path fill="#010101" d="M500,250c0,138.077-111.928,250-249.995,250C111.933,500,0,388.077,0,250C0,111.933,111.933,0,250.005,0
	C388.072,0,500,111.933,500,250z"/>
<path fill="#FFFFFF" d="M248.167,391.843c-48.797,0-101.269-24.136-151.744-69.795c-37.647-34.06-60.782-67.652-61.748-69.065
	l-3.459-5.061l3.459-5.061c0.966-1.413,24.101-35.005,61.748-69.065C146.898,128.136,199.37,104,248.167,104
	s101.272,24.136,151.744,69.795c37.653,34.06,60.782,67.652,61.751,69.065l3.462,5.061l-3.462,5.061
	c-0.969,1.413-24.098,35.005-61.751,69.065C349.438,367.707,296.964,391.843,248.167,391.843z M53.149,247.922
	c17.977,24.115,99.587,125.988,195.018,125.988c95.434,0,177.044-101.873,195.018-125.988
	c-17.974-24.115-99.584-125.988-195.018-125.988C152.736,121.933,71.126,223.806,53.149,247.922z"/>
<path fill="none" d="M53.572,248.324c17.977,24.115,99.587,125.988,195.018,125.988c95.434,0,177.044-101.873,195.018-125.988
	c-17.974-24.115-99.584-125.988-195.018-125.988C153.159,122.336,71.549,224.209,53.572,248.324z"/>
<path fill="#FFFFFF" d="M307.743,247.922c0-2.521-0.211-4.988-0.518-7.425l12.397-4.027l-7.038-21.673l-12.544,4.076
	c-2.445-4.297-5.409-8.253-8.816-11.787l7.876-10.839l-18.432-13.388l-8.122,11.178c-4.971-2.188-10.304-3.679-15.882-4.419V173.2
	h-17.933v16.772c-5.51,0.957-10.743,2.68-15.614,5.054l-8.84-12.167l-18.424,13.396l9.099,12.525
	c-2.953,3.31-5.576,6.919-7.728,10.837l-14.856-4.827l-7.038,21.665l15.034,4.885c-0.241,2.164-0.39,4.354-0.39,6.582
	c0,2.229,0.149,4.421,0.39,6.585l-15.026,4.882l7.046,21.658l14.841-4.821c2.152,3.917,4.774,7.526,7.727,10.836l-9.114,12.543
	l18.439,13.388l8.844-12.173c4.87,2.373,10.1,4.096,15.609,5.052v16.772h17.933v-16.418c5.575-0.74,10.905-2.23,15.874-4.417
	l8.13,11.191l18.432-13.396l-7.88-10.845c3.407-3.533,6.369-7.486,8.814-11.781l12.543,4.076l7.038-21.673l-12.391-4.026
	C307.531,252.914,307.743,250.445,307.743,247.922z M247.475,277.015c-16.071,0-29.096-13.025-29.096-29.093
	c0-16.075,13.026-29.093,29.096-29.093c16.068,0,29.097,13.018,29.097,29.093C276.572,263.99,263.544,277.015,247.475,277.015z"/>
</svg>
